<svg width="51" height="49" viewBox="0 0 51 49" fill="none" xmlns="http://www.w3.org/2000/svg">
<mask id="mask0_2_59" style="mask-type:luminance" maskUnits="userSpaceOnUse" x="0" y="0" width="51" height="49">
<path d="M51 0.970032H0V48.5622H51V0.970032Z" fill="white"/>
</mask>
<g mask="url(#mask0_2_59)">
<path fill-rule="evenodd" clip-rule="evenodd" d="M27.3215 0.970032H23.6786V16.0218L17.6363 2.06604L14.2587 3.33949L20.4575 17.6568L8.75673 6.73785L6.18084 9.14163L17.3955 19.6069L2.86215 13.6814L1.40367 16.7965L16.7817 23.0664H0V26.4659H16.7817L1.40368 32.7357L2.86215 35.8508L17.3955 29.9253L6.18084 40.3906L8.75673 42.7943L20.4575 31.8754L14.2587 46.1928L17.6363 47.4661L23.6786 33.5105V48.5622H27.3215V33.5105L33.3637 47.4661L36.7412 46.1928L30.5426 31.8754L42.2433 42.7943L44.8191 40.3906L33.6044 29.9253L48.1379 35.8508L49.5962 32.7357L34.2184 26.4659H51V23.0664H34.2182L49.5962 16.7965L48.1379 13.6814L33.6044 19.6069L44.8191 9.14161L42.2433 6.73785L30.5426 17.6567L36.7412 3.33949L33.3637 2.06604L27.3215 16.0218V0.970032Z" fill="#01D354"/>
</g>
</svg>
