<svg width="51" height="51" viewBox="0 0 51 51" fill="none" xmlns="http://www.w3.org/2000/svg">
<mask id="mask0_2_42" style="mask-type:luminance" maskUnits="userSpaceOnUse" x="0" y="0" width="51" height="51">
<path d="M51 0H0V51H51V0Z" fill="white"/>
</mask>
<g mask="url(#mask0_2_42)">
<path fill-rule="evenodd" clip-rule="evenodd" d="M27.3215 0H23.6786V16.1295L17.6363 1.17448L14.2587 2.53912L20.4575 17.8816L8.75673 6.18082L6.18084 8.75673L17.3955 19.9714L2.86215 13.6216L1.40367 16.9598L16.7817 23.6786H0V27.3215H16.7817L1.40368 34.0402L2.86215 37.3784L17.3955 31.0287L6.18084 42.2433L8.75673 44.8191L20.4575 33.1184L14.2587 48.461L17.6363 49.8255L23.6786 34.8705V51H27.3215V34.8705L33.3637 49.8255L36.7412 48.461L30.5426 33.1184L42.2433 44.8191L44.8191 42.2433L33.6044 31.0287L48.1379 37.3784L49.5962 34.0402L34.2184 27.3215H51V23.6786H34.2182L49.5962 16.9598L48.1379 13.6216L33.6044 19.9714L44.8191 8.7567L42.2433 6.18082L30.5426 17.8816L36.7412 2.53912L33.3637 1.17448L27.3215 16.1295V0Z" fill="#FF6370"/>
</g>
</svg>
